<?xml version="1.0" encoding="UTF-8" standalone="no"?>
<svg
   xmlns:dc="http://purl.org/dc/elements/1.1/"
   xmlns:cc="http://creativecommons.org/ns#"
   xmlns:rdf="http://www.w3.org/1999/02/22-rdf-syntax-ns#"
   xmlns:svg="http://www.w3.org/2000/svg"
   xmlns="http://www.w3.org/2000/svg"
   xmlns:sodipodi="http://sodipodi.sourceforge.net/DTD/sodipodi-0.dtd"
   xmlns:inkscape="http://www.inkscape.org/namespaces/inkscape"
   inkscape:version="1.0 (4035a4fb49, 2020-05-01)"
   sodipodi:docname="logo.svg"
   viewBox="0 0 202.381 106.972"
   height="106.972"
   width="202.381"
   xml:space="preserve"
   id="svg1402"
   version="1.1"><metadata
     id="metadata1408"><rdf:RDF><cc:Work
         rdf:about=""><dc:format>image/svg+xml</dc:format><dc:type
           rdf:resource="http://purl.org/dc/dcmitype/StillImage" /><dc:title></dc:title></cc:Work></rdf:RDF></metadata><defs
     id="defs1406"><clipPath
       id="clipPath1418"
       clipPathUnits="userSpaceOnUse"><path
         id="path1416"
         d="M 0,213.461 H 213.461 V 0 H 0 Z" /></clipPath></defs><sodipodi:namedview
     inkscape:current-layer="g1424"
     inkscape:window-maximized="1"
     inkscape:window-y="-8"
     inkscape:window-x="-8"
     inkscape:cy="64.774046"
     inkscape:cx="88.617198"
     inkscape:zoom="2.0308158"
     units="px"
     showgrid="false"
     id="namedview1404"
     inkscape:window-height="745"
     inkscape:window-width="1366"
     inkscape:pageshadow="2"
     inkscape:pageopacity="0"
     guidetolerance="10"
     gridtolerance="10"
     objecttolerance="10"
     borderopacity="1"
     bordercolor="#666666"
     pagecolor="#ffffff" /><g
     transform="matrix(1.3333333,0,0,-1.3333333,0,284.61467)"
     inkscape:label="no es show"
     inkscape:groupmode="layer"
     id="g1410"><g
       id="g1412"><g
         transform="translate(-30.869402,66.759294)"
         clip-path="url(#clipPath1418)"
         id="g1414"><g
           transform="translate(81.5117,131.4961)"
           id="g1420"><path
             id="path1422"
             style="fill:#000000;fill-opacity:1;fill-rule:nonzero;stroke:none"
             d="m 0,0 c -0.42,-0.706 -0.861,-1.503 -1.324,-2.39 -0.463,-0.887 -0.933,-1.832 -1.41,-2.834 -0.477,-1.002 -0.954,-2.043 -1.431,-3.121 -0.478,-1.078 -0.939,-2.161 -1.382,-3.249 -0.443,-1.088 -0.863,-2.159 -1.26,-3.213 -0.395,-1.054 -0.749,-2.059 -1.058,-3.013 -0.311,-0.954 -0.573,-1.839 -0.788,-2.656 -0.214,-0.815 -0.36,-1.529 -0.437,-2.139 -0.018,-0.105 -0.069,-0.215 -0.149,-0.329 -0.082,-0.115 -0.192,-0.22 -0.33,-0.316 -0.138,-0.094 -0.296,-0.174 -0.472,-0.235 -0.177,-0.063 -0.37,-0.094 -0.58,-0.094 -0.248,0 -0.513,0.058 -0.794,0.172 -0.282,0.114 -0.562,0.325 -0.838,0.63 -0.276,0.477 -0.554,1.121 -0.83,1.933 -0.276,0.81 -0.546,1.703 -0.809,2.676 -0.262,0.973 -0.517,1.991 -0.765,3.056 -0.248,1.064 -0.485,2.09 -0.709,3.077 -0.225,0.988 -0.442,1.897 -0.652,2.728 -0.21,0.83 -0.4,1.503 -0.572,2.017 -0.124,-0.4 -0.286,-0.896 -0.486,-1.488 -0.201,-0.592 -0.428,-1.245 -0.681,-1.961 -0.253,-0.716 -0.522,-1.467 -0.808,-2.255 -0.287,-0.787 -0.576,-1.579 -0.866,-2.376 -0.292,-0.797 -0.578,-1.572 -0.859,-2.326 -0.281,-0.754 -0.546,-1.452 -0.794,-2.097 -0.249,-0.643 -0.471,-1.212 -0.666,-1.703 -0.195,-0.491 -0.351,-0.871 -0.465,-1.138 -0.334,0.086 -0.63,0.212 -0.888,0.379 -0.257,0.167 -0.505,0.356 -0.744,0.566 -0.238,0.21 -0.472,0.429 -0.701,0.658 -0.229,0.229 -0.477,0.449 -0.745,0.659 0.487,1.631 1.041,3.282 1.661,4.952 0.62,1.67 1.283,3.33 1.989,4.982 0.706,1.65 1.444,3.282 2.212,4.894 0.768,1.614 1.538,3.173 2.312,4.681 0.19,0.306 0.405,0.458 0.643,0.458 0.23,0 0.44,-0.143 0.63,-0.429 0.658,-1.05 1.232,-2.14 1.718,-3.27 0.486,-1.131 0.914,-2.283 1.281,-3.457 0.368,-1.174 0.687,-2.36 0.959,-3.558 0.272,-1.197 0.523,-2.388 0.751,-3.571 0.306,0.926 0.657,1.873 1.053,2.842 0.396,0.968 0.815,1.936 1.26,2.905 0.443,0.969 0.908,1.918 1.395,2.849 0.487,0.93 0.973,1.825 1.46,2.683 0.258,0.458 0.551,0.916 0.88,1.374 0.329,0.459 0.701,0.871 1.116,1.238 0.415,0.368 0.878,0.668 1.389,0.903 0.511,0.233 1.076,0.35 1.696,0.35 0.038,0 0.101,-0.021 0.187,-0.064 C -0.615,0.337 -0.53,0.287 -0.444,0.229 -0.358,0.172 -0.274,0.12 -0.193,0.072 -0.112,0.024 -0.048,0 0,0" /></g><g
           style="fill:#000000;fill-opacity:1"
           transform="translate(84.875,112.2871)"
           id="g1424"><path
             id="path1426"
             style="fill:#000000;fill-opacity:1;fill-rule:nonzero;stroke:none"
             d="m 0,0 c 0.811,0 1.653,0.18 2.526,0.537 0.873,0.359 1.728,0.838 2.563,1.439 0.835,0.601 1.629,1.288 2.383,2.061 0.754,0.773 1.415,1.572 1.982,2.398 0.567,0.825 1.019,1.648 1.353,2.468 0.334,0.822 0.501,1.576 0.501,2.262 0,0.276 -0.121,0.575 -0.366,0.895 -0.243,0.319 -0.536,0.615 -0.879,0.887 -0.344,0.272 -0.697,0.498 -1.06,0.68 C 8.641,13.809 8.345,13.899 8.116,13.899 7.333,13.89 6.513,13.777 5.654,13.563 4.795,13.348 3.953,13.038 3.128,12.632 2.302,12.227 1.513,11.74 0.759,11.172 0.005,10.604 -0.656,9.965 -1.224,9.254 -1.792,8.543 -2.242,7.768 -2.576,6.929 -2.91,6.089 -3.077,5.201 -3.077,4.266 -3.077,4.189 -3.009,4.032 -2.87,3.794 -2.731,3.555 -2.555,3.275 -2.34,2.956 -2.126,2.637 -1.89,2.305 -1.632,1.961 -1.374,1.618 -1.131,1.301 -0.901,1.01 -0.673,0.719 -0.475,0.478 -0.308,0.287 -0.141,0.096 -0.038,0 0,0 m -0.516,-2.963 c -0.276,0 -0.593,0.106 -0.951,0.316 -0.358,0.209 -0.737,0.491 -1.138,0.844 -0.401,0.353 -0.811,0.753 -1.231,1.202 -0.42,0.449 -0.83,0.916 -1.231,1.403 -0.401,0.487 -0.778,0.967 -1.131,1.438 -0.353,0.473 -0.663,0.907 -0.93,1.303 -0.268,0.395 -0.477,0.734 -0.63,1.017 -0.152,0.281 -0.229,0.469 -0.229,0.565 0,1.183 0.136,2.271 0.408,3.264 0.271,0.992 0.651,1.9 1.138,2.726 0.487,0.825 1.066,1.57 1.739,2.233 0.673,0.663 1.403,1.25 2.19,1.76 0.787,0.511 1.619,0.948 2.497,1.31 0.878,0.363 1.771,0.663 2.677,0.902 0.906,0.239 1.814,0.412 2.72,0.523 0.906,0.109 1.779,0.164 2.619,0.164 0.487,0 0.976,-0.126 1.468,-0.379 0.491,-0.253 0.959,-0.587 1.402,-1.002 0.444,-0.415 0.857,-0.888 1.238,-1.417 0.382,-0.53 0.713,-1.071 0.995,-1.625 0.282,-0.554 0.503,-1.093 0.666,-1.617 0.162,-0.526 0.243,-0.992 0.243,-1.403 0,-1.173 -0.193,-2.321 -0.579,-3.443 C 13.047,6 12.515,4.938 11.838,3.937 11.16,2.935 10.36,2.012 9.439,1.167 8.519,0.322 7.52,-0.405 6.441,-1.016 5.362,-1.627 4.234,-2.104 3.056,-2.447 1.877,-2.791 0.687,-2.963 -0.516,-2.963" /></g><g
           style="fill:#000000;fill-opacity:1"
           transform="translate(116.707,111.4141)"
           id="g1428"><path
             id="path1430"
             style="fill:#000000;fill-opacity:1;fill-rule:nonzero;stroke:none"
             d="m 0,0 c 0.172,0.659 0.363,1.382 0.573,2.169 0.21,0.787 0.435,1.607 0.673,2.462 0.238,0.853 0.488,1.729 0.751,2.627 0.263,0.896 0.527,1.781 0.795,2.655 0.267,0.873 0.531,1.722 0.794,2.547 0.263,0.826 0.518,1.597 0.766,2.312 0.248,0.716 0.484,1.367 0.709,1.954 0.223,0.586 0.431,1.076 0.622,1.467 0.086,0.172 0.315,0.338 0.687,0.501 0.372,0.162 0.845,0.317 1.417,0.465 0.572,0.148 1.214,0.286 1.925,0.415 0.711,0.129 1.446,0.246 2.205,0.351 0.758,0.105 1.515,0.2 2.269,0.286 0.753,0.086 1.455,0.158 2.103,0.215 0.649,0.057 1.222,0.102 1.718,0.136 0.496,0.034 0.864,0.05 1.102,0.05 0.544,0 0.981,-0.112 1.31,-0.337 0.329,-0.223 0.494,-0.603 0.494,-1.137 V 19.009 C 19.224,18.551 17.557,18.107 15.91,17.678 14.264,17.248 12.587,16.896 10.879,16.618 10.669,16.59 10.504,16.545 10.385,16.482 10.266,16.421 10.17,16.342 10.099,16.246 10.027,16.151 9.97,16.034 9.927,15.896 9.884,15.757 9.839,15.588 9.791,15.388 9.705,15.016 9.614,14.688 9.52,14.407 9.424,14.126 9.33,13.856 9.24,13.599 9.149,13.341 9.056,13.073 8.961,12.797 8.865,12.52 8.77,12.195 8.675,11.823 c 0.266,0.02 0.613,0.063 1.037,0.129 0.425,0.067 0.866,0.136 1.324,0.208 0.458,0.071 0.904,0.136 1.339,0.194 0.434,0.056 0.799,0.085 1.095,0.085 0.4,0 0.729,-0.052 0.987,-0.158 0.258,-0.104 0.463,-0.248 0.616,-0.428 0.153,-0.182 0.257,-0.397 0.315,-0.645 0.057,-0.248 0.086,-0.511 0.086,-0.787 V 10.234 C 14.863,10.044 14.305,9.889 13.799,9.77 13.293,9.65 12.797,9.548 12.311,9.462 11.823,9.376 11.332,9.297 10.836,9.226 10.34,9.154 9.796,9.061 9.204,8.946 8.813,8.87 8.515,8.815 8.31,8.782 8.104,8.748 7.947,8.698 7.837,8.632 7.728,8.564 7.639,8.462 7.572,8.324 7.506,8.186 7.415,7.968 7.301,7.673 7.081,7.138 6.864,6.585 6.649,6.012 6.435,5.439 6.227,4.876 6.026,4.323 5.826,3.77 5.643,3.237 5.476,2.728 5.309,2.217 5.163,1.756 5.039,1.346 5.707,1.412 6.401,1.524 7.121,1.683 7.842,1.84 8.579,2.017 9.333,2.212 c 0.754,0.195 1.513,0.398 2.276,0.608 0.763,0.21 1.522,0.401 2.276,0.573 0.754,0.171 1.493,0.312 2.219,0.422 0.724,0.11 1.421,0.164 2.089,0.164 0.334,0 0.568,-0.076 0.702,-0.228 0.133,-0.153 0.2,-0.339 0.2,-0.559 0,-0.162 -0.019,-0.32 -0.057,-0.472 C 18.999,2.567 18.956,2.41 18.909,2.248 18.126,1.99 17.327,1.701 16.512,1.382 15.695,1.062 14.865,0.732 14.021,0.394 13.176,0.055 12.315,-0.278 11.438,-0.608 10.559,-0.937 9.672,-1.245 8.774,-1.531 8.518,-1.617 8.114,-1.718 7.565,-1.832 7.017,-1.946 6.406,-2.061 5.733,-2.176 5.061,-2.29 4.363,-2.397 3.644,-2.497 2.923,-2.598 2.262,-2.677 1.661,-2.733 Z" /></g><g
           style="fill:#000000;fill-opacity:1"
           transform="translate(142.2578,111.8154)"
           id="g1432"><path
             id="path1434"
             style="fill:#000000;fill-opacity:1;fill-rule:nonzero;stroke:none"
             d="m 0,0 c 0.392,0 0.842,0.052 1.353,0.157 0.51,0.105 1.033,0.258 1.567,0.458 0.534,0.2 1.061,0.448 1.582,0.744 0.519,0.296 0.994,0.635 1.424,1.017 0.429,0.382 0.79,0.806 1.081,1.273 0.291,0.468 0.474,0.974 0.551,1.518 V 5.281 C 7.558,5.559 7.431,5.837 7.179,6.119 6.926,6.4 6.594,6.689 6.184,6.985 5.773,7.28 5.306,7.581 4.78,7.887 4.256,8.192 3.717,8.509 3.163,8.839 2.609,9.168 2.07,9.512 1.546,9.869 c -0.525,0.358 -0.992,0.73 -1.402,1.116 -0.412,0.387 -0.743,0.79 -0.996,1.21 -0.252,0.42 -0.379,0.864 -0.379,1.331 0,0.544 0.155,1.05 0.465,1.518 0.31,0.467 0.718,0.896 1.224,1.288 0.506,0.391 1.073,0.734 1.703,1.03 0.63,0.296 1.267,0.549 1.911,0.759 0.645,0.21 1.26,0.367 1.847,0.473 0.587,0.104 1.09,0.157 1.51,0.157 0.524,0 1.007,-0.053 1.445,-0.157 0.439,-0.106 0.816,-0.273 1.131,-0.501 0.315,-0.23 0.56,-0.523 0.737,-0.881 0.177,-0.358 0.265,-0.79 0.265,-1.295 v -0.279 c 0,-0.091 -0.009,-0.189 -0.028,-0.294 C 10.244,15.268 9.485,15.223 8.703,15.208 7.92,15.193 7.176,15.158 6.47,15.101 5.764,15.044 5.127,14.94 4.559,14.793 3.991,14.645 3.56,14.395 3.264,14.042 c 0.61,-0.344 1.261,-0.694 1.954,-1.053 0.691,-0.357 1.374,-0.727 2.047,-1.109 0.672,-0.382 1.316,-0.782 1.931,-1.202 0.617,-0.42 1.158,-0.864 1.625,-1.331 0.467,-0.468 0.84,-0.964 1.117,-1.489 0.276,-0.525 0.415,-1.084 0.415,-1.674 v -0.28 c 0,-0.091 -0.01,-0.183 -0.029,-0.279 C 12.2,4.651 11.952,3.762 11.58,2.955 11.208,2.149 10.745,1.426 10.191,0.787 9.638,0.147 9.011,-0.408 8.309,-0.881 7.607,-1.353 6.87,-1.746 6.098,-2.062 5.324,-2.376 4.53,-2.61 3.715,-2.763 2.898,-2.915 2.095,-2.992 1.303,-2.992 c -1.222,0 -2.329,0.127 -3.322,0.38 -0.992,0.253 -1.841,0.557 -2.547,0.916 -0.706,0.357 -1.25,0.734 -1.632,1.131 -0.381,0.395 -0.573,0.737 -0.573,1.023 0,0.114 0.022,0.24 0.065,0.379 0.043,0.139 0.127,0.267 0.251,0.387 0.124,0.119 0.3,0.219 0.529,0.3 0.229,0.081 0.525,0.122 0.888,0.122 0.343,0 0.677,-0.086 1.002,-0.257 C -3.712,1.217 -3.359,1.028 -2.978,0.823 -2.596,0.617 -2.166,0.429 -1.689,0.258 -1.212,0.086 -0.649,0 0,0" /></g><g
           transform="translate(36.3076,79.3037)"
           id="g1436"><path
             id="path1438"
             style="fill:#36a9e1;fill-opacity:1;fill-rule:evenodd;stroke:none"
             d="m 0,0 v -8.021 c 0.885,-0.305 1.724,-0.692 2.604,-0.881 2.077,-0.446 4.158,-0.961 6.264,-1.153 3.9,-0.352 7.808,-0.375 11.544,1.114 3.55,1.414 5.611,4.013 5.966,7.831 0.346,3.716 -0.637,6.932 -4.015,8.987 -1.263,0.768 -2.625,1.399 -3.993,1.968 -1.306,0.543 -2.689,0.893 -4.017,1.384 -0.661,0.246 -1.327,0.544 -1.895,0.952 -0.719,0.513 -0.658,1.516 0.024,1.975 1.119,0.752 3.232,0.44 4.05,-0.615 0.251,-0.322 0.45,-0.685 0.571,-0.871 h 7.854 v 7.341 c -1.102,0.439 -2.251,0.974 -3.447,1.362 -4.627,1.5 -9.362,1.607 -14.094,0.729 C 0.515,20.82 -2.678,14.068 0.63,7.982 1.438,6.496 2.622,5.346 4.099,4.624 6.258,3.566 8.513,2.708 10.723,1.755 11.567,1.392 12.465,1.096 13.212,0.584 13.6,0.319 13.908,-0.353 13.899,-0.834 13.887,-1.507 13.309,-1.909 12.622,-2.068 10.598,-2.537 9.533,-2.004 8.589,0 Z m 61.955,6.174 c 0.257,-2.017 0.393,-4.005 0.777,-5.944 1.165,-5.85 5.428,-9.172 10.966,-10.096 2.618,-0.437 5.199,-0.374 7.824,-0.019 5.126,0.694 9.771,3.955 11.149,9.931 0.844,3.656 0.914,7.32 0.288,10.982 -1.008,5.899 -4.351,9.696 -10.301,11.038 -3.238,0.731 -6.489,0.75 -9.71,0.059 C 67.812,21.021 64.223,18.049 62.874,12.868 62.308,10.694 62.244,8.39 61.955,6.174 M 41.247,3.849 c 0.954,0 1.871,0.047 2.781,-0.012 0.964,-0.065 1.973,0.268 2.87,-0.211 v -6.451 c -0.61,-0.122 -1.141,-0.229 -1.763,-0.353 0,-1.847 -0.004,-3.618 0.004,-5.387 0.002,-0.341 0.051,-0.681 0.077,-0.995 2.389,-0.435 13.882,-0.34 15.206,0.084 v 6.323 c -0.722,0.139 -1.318,0.255 -1.858,0.359 v 18.027 c 0.694,0.114 1.29,0.211 1.878,0.308 V 22.09 H 45.224 v -6.486 c 0.592,-0.163 1.172,-0.321 1.641,-0.449 V 9.392 C 44.942,9.448 43.136,9.296 41.366,9.48 v 5.779 c 0.363,0.048 0.636,0.074 0.904,0.123 0.262,0.049 0.521,0.122 0.779,0.183 v 6.399 c -2.32,0.399 -13.832,0.329 -15.243,-0.068 v -6.391 c 0.693,-0.098 1.294,-0.181 1.937,-0.272 V -2.81 C 29.031,-2.951 28.381,-3.08 27.83,-3.188 V -9.69 h 15.233 v 6.501 c -0.604,0.152 -1.184,0.297 -1.816,0.457 z m 87.728,1.485 c -0.175,-0.008 -0.351,-0.016 -0.526,-0.023 -1.19,5.584 -2.381,11.168 -3.582,16.808 H 113.123 C 111.818,16.485 110.52,10.871 109.22,5.258 l -0.507,0.003 c -0.548,3.287 -1.039,6.583 -1.533,9.926 0.564,0.152 1.018,0.274 1.458,0.393 v 6.516 H 93.623 v -6.525 c 0.551,-0.127 1.077,-0.248 1.648,-0.38 2.156,-8.323 4.301,-16.608 6.432,-24.836 2.925,-0.312 10.676,-0.234 12.276,0.115 1.298,5.831 2.602,11.682 3.905,17.534 1.243,-2.877 1.707,-5.86 2.384,-8.786 0.695,-3.002 1.085,-6.076 1.942,-9.03 4.186,0.011 8.144,-0.026 12.077,0.026 1.07,4.362 2.089,8.488 3.095,12.618 1.006,4.126 1.999,8.254 3.002,12.397 0.4,0.068 0.675,0.099 0.941,0.165 0.257,0.061 0.506,0.158 0.655,0.207 v 6.493 h -12.883 v -6.542 c 0.576,-0.18 1.009,-0.315 1.433,-0.447 -0.534,-3.357 -1.045,-6.564 -1.555,-9.771 M -5.219,-12.688 c -0.358,3.158 -0.323,35.107 0.043,36.911 h 151.205 c 0.326,-1.553 0.405,-34.042 0.075,-36.911 z" /></g><g
           transform="translate(116.9014,85.2988)"
           id="g1440"><path
             id="path1442"
             style="fill:#36a9e1;fill-opacity:1;fill-rule:evenodd;stroke:none"
             d="m 0,0 c 0,-1.85 0.076,-3.704 -0.033,-5.547 -0.053,-0.882 -0.264,-1.877 -0.75,-2.58 -0.665,-0.96 -1.86,-0.949 -2.942,-0.746 -0.997,0.188 -1.655,0.808 -1.811,1.845 -0.116,0.768 -0.245,1.545 -0.251,2.318 -0.026,3.415 -0.011,6.83 -0.008,10.245 0,0.427 -0.039,0.861 0.026,1.279 0.295,1.886 1.633,2.833 3.517,2.496 1.061,-0.192 1.863,-0.706 2.035,-1.871 0.093,-0.627 0.2,-1.258 0.21,-1.889 C 0.021,3.701 0.003,1.851 0.003,0 Z" /></g><path
           id="path1444"
           style="fill:#36a9e1;fill-opacity:1;fill-rule:nonzero;stroke:none"
           d="m 108.65,109.425 h -3 v 37.42 h 3 z" /></g></g></g></svg>
